# xmcd CD database file
#
# Track frame offsets:
#	150
#	20674
#	43467
#	58820
#	78824
#	110957
#	135686
#	153998
#	190366
#	218811
#	242160
#
# Disc length: 3464 seconds
#
# Revision: 0
# Processed by: cddbd v1.5.2PL0 Copyright (c) Steve Scherf et al.
# Submitted via: CDex 1.70beta2
#
DISCID=a30d860b
DTITLE=Maria Laura Bigliazzi Jazz Quartet - Ritratti di Donna
DYEAR=2012
DGENRE=Jazz
TTITLE0=Prigramente Signora
TTITLE1=A case of you
TTITLE2=Luna Bianca - Lua Branca
TTITLE3=Lawns
TTITLE4=Isobel
TTITLE5=Tre quarti di Luna
TTITLE6=Questa Donna - Essa Mulher
TTITLE7=La canzone di Mary Lou
TTITLE8=Be another
TTITLE9=Nottambula
TTITLE10=Midnight Blue
EXTD=YEAR: 2012
EXTT0=
EXTT1=
EXTT2=
EXTT3=
EXTT4=
EXTT5=
EXTT6=
EXTT7=
EXTT8=
EXTT9=
EXTT10=
PLAYORDER=
